<?xml version="1.0" standalone="no"?>
<!DOCTYPE svg PUBLIC "-//W3C//DTD SVG 1.1//EN" "http://www.w3.org/Graphics/SVG/1.1/DTD/svg11.dtd">
<svg width="18mm" height="20mm" viewBox="-9 -10 18 20" xmlns="http://www.w3.org/2000/svg" version="1.1">
<title>OpenSCAD Model</title>
<path d="
M 0.448648,9.98993 L 0.747301,9.97204 L 1.04528,9.94522 L 1.34233,9.9095 L 1.63818,9.86491 L 1.93256,9.81148
 L 2.22521,9.74928 L 2.51587,9.67835 L 2.80427,9.59875 L 3.09017,9.51057 L 3.3733,9.41386 L 3.65341,9.30874
 L 3.93025,9.19528 L 4.20357,9.07359 L 4.47313,8.94377 L 4.73869,8.80596 L 5,8.66025 L 5.25684,8.5068
 L 5.50897,8.34573 L 5.75617,8.17719 L 5.99822,8.00134 L 6.2349,7.81831 L 6.466,7.6283 L 6.69131,7.43145
 L 6.91063,7.22795 L 7.12376,7.01798 L 7.33052,6.80173 L 7.53071,6.57939 L 7.72417,6.35116 L 7.7771,6.28478
 L 7.91071,6.11724 L 8.09017,5.87785 L 8.26239,5.6332 L 8.42721,5.38351 L 8.58449,5.12899 L 8.73408,4.86989
 L 8.87586,4.60642 L 8.91048,4.5372 L 8.82593,4.51656 L 8.69134,4.47942 L 8.55792,4.43826 L 8.42579,4.39314
 L 8.29508,4.34408 L 8.16588,4.29113 L 8.03833,4.23434 L 7.91254,4.17376 L 7.78861,4.10945 L 7.66667,4.04145
 L 7.54681,3.96984 L 7.42915,3.89468 L 7.31379,3.81602 L 7.20083,3.73396 L 7.09038,3.64855 L 6.98254,3.55987
 L 6.87739,3.46801 L 6.77504,3.37304 L 6.67558,3.27506 L 6.57909,3.17414 L 6.48567,3.07038 L 6.39539,2.96387
 L 6.30834,2.85471 L 6.22459,2.743 L 6.14422,2.62883 L 6.0673,2.5123 L 5.99391,2.39353 L 5.9241,2.27261
 L 5.85793,2.14966 L 5.79548,2.02479 L 5.73679,1.8981 L 5.68191,1.76972 L 5.6309,1.63975 L 5.58381,1.50831
 L 5.54066,1.37552 L 5.50151,1.24151 L 5.46638,1.10638 L 5.43531,0.970255 L 5.40833,0.833266 L 5.38546,0.695531
 L 5.36671,0.557173 L 5.35212,0.418317 L 5.34169,0.279086 L 5.33542,0.139606 L 5.33333,-0 L 5.33542,-0.139606
 L 5.34169,-0.279086 L 5.35212,-0.418317 L 5.36671,-0.557173 L 5.38546,-0.695531 L 5.40833,-0.833266 L 5.43531,-0.970255
 L 5.46638,-1.10638 L 5.50151,-1.24151 L 5.54066,-1.37552 L 5.58381,-1.50831 L 5.6309,-1.63975 L 5.68191,-1.76972
 L 5.73679,-1.8981 L 5.79548,-2.02479 L 5.85793,-2.14966 L 5.9241,-2.27261 L 5.99391,-2.39353 L 6.0673,-2.5123
 L 6.14422,-2.62883 L 6.22459,-2.743 L 6.30834,-2.85471 L 6.39539,-2.96387 L 6.48567,-3.07038 L 6.57909,-3.17414
 L 6.67558,-3.27506 L 6.77504,-3.37304 L 6.87739,-3.46801 L 6.98254,-3.55987 L 7.09038,-3.64855 L 7.20083,-3.73396
 L 7.31379,-3.81602 L 7.42915,-3.89468 L 7.54681,-3.96984 L 7.66667,-4.04145 L 7.78861,-4.10945 L 7.91254,-4.17376
 L 8.03833,-4.23434 L 8.16588,-4.29113 L 8.29508,-4.34408 L 8.42579,-4.39314 L 8.55792,-4.43826 L 8.69134,-4.47942
 L 8.82593,-4.51656 L 8.91048,-4.5372 L 8.87586,-4.60642 L 8.73408,-4.86989 L 8.58449,-5.12899 L 8.42721,-5.38351
 L 8.26239,-5.6332 L 8.09017,-5.87785 L 7.91071,-6.11724 L 7.7771,-6.28478 L 7.72417,-6.35116 L 7.53071,-6.57939
 L 7.33052,-6.80173 L 7.12376,-7.01798 L 6.91063,-7.22795 L 6.69131,-7.43145 L 6.466,-7.6283 L 6.2349,-7.81831
 L 5.99822,-8.00134 L 5.75617,-8.17719 L 5.50897,-8.34573 L 5.25684,-8.5068 L 5,-8.66025 L 4.73869,-8.80596
 L 4.47313,-8.94377 L 4.20357,-9.07359 L 3.93025,-9.19528 L 3.65341,-9.30874 L 3.3733,-9.41386 L 3.09017,-9.51057
 L 2.80427,-9.59875 L 2.51587,-9.67835 L 2.22521,-9.74928 L 1.93256,-9.81148 L 1.63818,-9.86491 L 1.34233,-9.9095
 L 1.04528,-9.94522 L 0.747301,-9.97204 L 0.448648,-9.98993 L 0.149594,-9.99888 L -0.149594,-9.99888 L -0.448648,-9.98993
 L -0.747301,-9.97204 L -1.04528,-9.94522 L -1.34233,-9.9095 L -1.63818,-9.86491 L -1.93256,-9.81148 L -2.22521,-9.74928
 L -2.51587,-9.67835 L -2.80427,-9.59875 L -3.09017,-9.51057 L -3.3733,-9.41386 L -3.65341,-9.30874 L -3.93025,-9.19528
 L -4.20357,-9.07359 L -4.47313,-8.94377 L -4.73869,-8.80596 L -5,-8.66025 L -5.25684,-8.5068 L -5.50897,-8.34573
 L -5.75617,-8.17719 L -5.99822,-8.00134 L -6.2349,-7.81831 L -6.466,-7.6283 L -6.69131,-7.43145 L -6.91063,-7.22795
 L -7.12376,-7.01798 L -7.33052,-6.80173 L -7.53071,-6.57939 L -7.72417,-6.35116 L -7.7771,-6.28478 L -7.91071,-6.11724
 L -8.09017,-5.87785 L -8.26239,-5.6332 L -8.42721,-5.38351 L -8.58449,-5.12899 L -8.73408,-4.86989 L -8.87586,-4.60642
 L -8.91048,-4.5372 L -8.82593,-4.51656 L -8.69134,-4.47942 L -8.55792,-4.43826 L -8.42579,-4.39314 L -8.29508,-4.34408
 L -8.16588,-4.29113 L -8.03833,-4.23434 L -7.91254,-4.17376 L -7.78861,-4.10945 L -7.66667,-4.04145 L -7.54681,-3.96984
 L -7.42915,-3.89468 L -7.31379,-3.81602 L -7.20083,-3.73396 L -7.09038,-3.64855 L -6.98254,-3.55987 L -6.87739,-3.46801
 L -6.77504,-3.37304 L -6.67558,-3.27506 L -6.57909,-3.17414 L -6.48567,-3.07038 L -6.39539,-2.96387 L -6.30834,-2.85471
 L -6.22459,-2.743 L -6.14422,-2.62883 L -6.0673,-2.5123 L -5.99391,-2.39353 L -5.9241,-2.27261 L -5.85793,-2.14966
 L -5.79548,-2.02479 L -5.73679,-1.8981 L -5.68191,-1.76972 L -5.6309,-1.63975 L -5.58381,-1.50831 L -5.54066,-1.37552
 L -5.50151,-1.24151 L -5.46638,-1.10638 L -5.43531,-0.970255 L -5.40833,-0.833266 L -5.38546,-0.695531 L -5.36671,-0.557173
 L -5.35212,-0.418317 L -5.34169,-0.279086 L -5.33542,-0.139606 L -5.33333,-0 L -5.33542,0.139606 L -5.34169,0.279086
 L -5.35212,0.418317 L -5.36671,0.557173 L -5.38546,0.695531 L -5.40833,0.833266 L -5.43531,0.970255 L -5.46638,1.10638
 L -5.50151,1.24151 L -5.54066,1.37552 L -5.58381,1.50831 L -5.6309,1.63975 L -5.68191,1.76972 L -5.73679,1.8981
 L -5.79548,2.02479 L -5.85793,2.14966 L -5.9241,2.27261 L -5.99391,2.39353 L -6.0673,2.5123 L -6.14422,2.62883
 L -6.22459,2.743 L -6.30834,2.85471 L -6.39539,2.96387 L -6.48567,3.07038 L -6.57909,3.17414 L -6.67558,3.27506
 L -6.77504,3.37304 L -6.87739,3.46801 L -6.98254,3.55987 L -7.09038,3.64855 L -7.20083,3.73396 L -7.31379,3.81602
 L -7.42915,3.89468 L -7.54681,3.96984 L -7.66667,4.04145 L -7.78861,4.10945 L -7.91254,4.17376 L -8.03833,4.23434
 L -8.16588,4.29113 L -8.29508,4.34408 L -8.42579,4.39314 L -8.55792,4.43826 L -8.69134,4.47942 L -8.82593,4.51656
 L -8.91048,4.5372 L -8.87586,4.60642 L -8.73408,4.86989 L -8.58449,5.12899 L -8.42721,5.38351 L -8.26239,5.6332
 L -8.09017,5.87785 L -7.91071,6.11724 L -7.7771,6.28478 L -7.72417,6.35116 L -7.53071,6.57939 L -7.33052,6.80173
 L -7.12376,7.01798 L -6.91063,7.22795 L -6.69131,7.43145 L -6.466,7.6283 L -6.2349,7.81831 L -5.99822,8.00134
 L -5.75617,8.17719 L -5.50897,8.34573 L -5.25684,8.5068 L -5,8.66025 L -4.73869,8.80596 L -4.47313,8.94377
 L -4.20357,9.07359 L -3.93025,9.19528 L -3.65341,9.30874 L -3.3733,9.41386 L -3.09017,9.51057 L -2.80427,9.59875
 L -2.51587,9.67835 L -2.22521,9.74928 L -1.93256,9.81148 L -1.63818,9.86491 L -1.34233,9.9095 L -1.04528,9.94522
 L -0.747301,9.97204 L -0.448648,9.98993 L -0.149594,9.99888 L 0.149594,9.99888 z
M 4.11956,-3.38728 L 4.01638,-3.50901 L 3.90961,-3.62759 L 3.79934,-3.74292 L 3.68567,-3.85491 L 3.5687,-3.96344
 L 3.44853,-4.06842 L 3.32528,-4.16977 L 3.19905,-4.26738 L 3.06996,-4.36117 L 2.93812,-4.45106 L 2.80365,-4.53696
 L 2.66667,-4.6188 L 2.5273,-4.69651 L 2.38567,-4.77001 L 2.24191,-4.83925 L 2.09613,-4.90415 L 1.94849,-4.96466
 L 1.79909,-5.02073 L 1.64809,-5.0723 L 1.49561,-5.11933 L 1.3418,-5.16179 L 1.18678,-5.19962 L 1.0307,-5.23279
 L 0.873696,-5.26128 L 0.715911,-5.28507 L 0.557485,-5.30412 L 0.398561,-5.31842 L 0.239279,-5.32796 L 0.0797835,-5.33274
 L -0.0797835,-5.33274 L -0.239279,-5.32796 L -0.398561,-5.31842 L -0.557485,-5.30412 L -0.715911,-5.28507 L -0.873696,-5.26128
 L -1.0307,-5.23279 L -1.18678,-5.19962 L -1.3418,-5.16179 L -1.49561,-5.11933 L -1.64809,-5.0723 L -1.79909,-5.02073
 L -1.94849,-4.96466 L -2.09613,-4.90415 L -2.24191,-4.83925 L -2.38567,-4.77001 L -2.5273,-4.69651 L -2.66667,-4.6188
 L -2.80365,-4.53696 L -2.93812,-4.45106 L -3.06996,-4.36117 L -3.19905,-4.26738 L -3.32528,-4.16977 L -3.44853,-4.06842
 L -3.5687,-3.96344 L -3.68567,-3.85491 L -3.79934,-3.74292 L -3.90961,-3.62759 L -4.01638,-3.50901 L -4.11956,-3.38728
 L -4.20016,-3.28622 L -4.27701,-3.41933 L -4.38186,-3.589 L -4.49174,-3.75547 L -4.60655,-3.91857 L -4.72619,-4.07816
 L -4.85055,-4.23411 L -4.97952,-4.38626 L -5.11299,-4.53448 L -5.25083,-4.67865 L -5.39292,-4.81863 L -5.53913,-4.9543
 L -5.68934,-5.08553 L -5.8434,-5.21221 L -5.97744,-5.31586 L -5.86441,-5.44138 L -5.69901,-5.61438 L -5.5285,-5.78236
 L -5.35304,-5.94516 L -5.1728,-6.10264 L -4.98792,-6.25465 L -4.79858,-6.40107 L -4.60494,-6.54176 L -4.40718,-6.67659
 L -4.20547,-6.80544 L -4,-6.9282 L -3.79095,-7.04476 L -3.57851,-7.15502 L -3.36286,-7.25887 L -3.1442,-7.35622
 L -2.92273,-7.44699 L -2.69864,-7.53109 L -2.47214,-7.60845 L -2.24342,-7.679 L -2.01269,-7.74268 L -1.78017,-7.79942
 L -1.54605,-7.84919 L -1.31054,-7.89192 L -1.07387,-7.9276 L -0.836228,-7.95618 L -0.597841,-7.97763 L -0.358919,-7.99194
 L -0.119675,-7.9991 L 0.119675,-7.9991 L 0.358919,-7.99194 L 0.597841,-7.97763 L 0.836228,-7.95618 L 1.07387,-7.9276
 L 1.31054,-7.89192 L 1.54605,-7.84919 L 1.78017,-7.79942 L 2.01269,-7.74268 L 2.24342,-7.679 L 2.47214,-7.60845
 L 2.69864,-7.53109 L 2.92273,-7.44699 L 3.1442,-7.35622 L 3.36286,-7.25887 L 3.57851,-7.15502 L 3.79095,-7.04476
 L 4,-6.9282 L 4.20547,-6.80544 L 4.40718,-6.67659 L 4.60494,-6.54176 L 4.79858,-6.40107 L 4.98792,-6.25465
 L 5.1728,-6.10264 L 5.35304,-5.94516 L 5.5285,-5.78236 L 5.69901,-5.61438 L 5.86441,-5.44138 L 5.97744,-5.31586
 L 5.8434,-5.21221 L 5.68934,-5.08553 L 5.53913,-4.9543 L 5.39292,-4.81863 L 5.25083,-4.67865 L 5.11299,-4.53448
 L 4.97952,-4.38626 L 4.85055,-4.23411 L 4.72619,-4.07816 L 4.60655,-3.91857 L 4.49174,-3.75547 L 4.38186,-3.589
 L 4.27701,-3.41933 L 4.20016,-3.28622 z
M -0.149549,3.32998 L -0.2491,3.32401 L -0.348428,3.31507 L -0.447444,3.30317 L -0.54606,3.2883 L -0.644186,3.27049
 L -0.741736,3.24976 L -0.838623,3.22612 L -0.934758,3.19958 L -1.03006,3.17019 L -1.12443,3.13795 L -1.2178,3.10291
 L -1.31008,3.06509 L -1.40119,3.02453 L -1.49104,2.98126 L -1.57956,2.93532 L -1.66667,2.88675 L -1.75228,2.8356
 L -1.83632,2.78191 L -1.91872,2.72573 L -1.99941,2.66711 L -2.0783,2.6061 L -2.15533,2.54277 L -2.23044,2.47715
 L -2.30354,2.40932 L -2.37459,2.33933 L -2.44351,2.26724 L -2.51024,2.19313 L -2.57472,2.11705 L -2.6369,2.03908
 L -2.69672,1.95928 L -2.75413,1.87773 L -2.80907,1.7945 L -2.8615,1.70966 L -2.91136,1.6233 L -2.95862,1.53547
 L -3.00323,1.44628 L -3.04515,1.35579 L -3.08435,1.26408 L -3.12078,1.17125 L -3.15442,1.07737 L -3.18524,0.982517
 L -3.21321,0.886789 L -3.2383,0.790268 L -3.26049,0.693039 L -3.27977,0.59519 L -3.2961,0.496808 L -3.30949,0.397981
 L -3.31991,0.298798 L -3.32737,0.199347 L -3.33184,0.0997182 L -3.33333,-0 L -3.33184,-0.0997182 L -3.32737,-0.199347
 L -3.31991,-0.298798 L -3.30949,-0.397981 L -3.2961,-0.496808 L -3.27977,-0.59519 L -3.26049,-0.693039 L -3.2383,-0.790268
 L -3.21321,-0.886789 L -3.18524,-0.982517 L -3.15442,-1.07737 L -3.12078,-1.17125 L -3.08435,-1.26408 L -3.04515,-1.35579
 L -3.00323,-1.44628 L -2.95862,-1.53547 L -2.91136,-1.6233 L -2.8615,-1.70966 L -2.80907,-1.7945 L -2.75413,-1.87773
 L -2.69672,-1.95928 L -2.6369,-2.03908 L -2.57472,-2.11705 L -2.51024,-2.19313 L -2.44351,-2.26724 L -2.37459,-2.33933
 L -2.30354,-2.40932 L -2.23044,-2.47715 L -2.15533,-2.54277 L -2.0783,-2.6061 L -1.99941,-2.66711 L -1.91872,-2.72573
 L -1.83632,-2.78191 L -1.75228,-2.8356 L -1.66667,-2.88675 L -1.57956,-2.93532 L -1.49104,-2.98126 L -1.40119,-3.02453
 L -1.31008,-3.06509 L -1.2178,-3.10291 L -1.12443,-3.13795 L -1.03006,-3.17019 L -0.934758,-3.19958 L -0.838623,-3.22612
 L -0.741736,-3.24976 L -0.644186,-3.27049 L -0.54606,-3.2883 L -0.447444,-3.30317 L -0.348428,-3.31507 L -0.2491,-3.32401
 L -0.149549,-3.32998 L -0.0498647,-3.33296 L 0.0498647,-3.33296 L 0.149549,-3.32998 L 0.2491,-3.32401 L 0.348428,-3.31507
 L 0.447444,-3.30317 L 0.54606,-3.2883 L 0.644186,-3.27049 L 0.741736,-3.24976 L 0.838623,-3.22612 L 0.934758,-3.19958
 L 1.03006,-3.17019 L 1.12443,-3.13795 L 1.2178,-3.10291 L 1.31008,-3.06509 L 1.40119,-3.02453 L 1.49104,-2.98126
 L 1.57956,-2.93532 L 1.66667,-2.88675 L 1.75228,-2.8356 L 1.83632,-2.78191 L 1.91872,-2.72573 L 1.99941,-2.66711
 L 2.0783,-2.6061 L 2.15533,-2.54277 L 2.23044,-2.47715 L 2.30354,-2.40932 L 2.37459,-2.33933 L 2.44351,-2.26724
 L 2.51024,-2.19313 L 2.57472,-2.11705 L 2.6369,-2.03908 L 2.69672,-1.95928 L 2.75413,-1.87773 L 2.80907,-1.7945
 L 2.8615,-1.70966 L 2.91136,-1.6233 L 2.95862,-1.53547 L 3.00323,-1.44628 L 3.04515,-1.35579 L 3.08435,-1.26408
 L 3.12078,-1.17125 L 3.15442,-1.07737 L 3.18524,-0.982517 L 3.21321,-0.886789 L 3.2383,-0.790268 L 3.26049,-0.693039
 L 3.27977,-0.59519 L 3.2961,-0.496808 L 3.30949,-0.397981 L 3.31991,-0.298798 L 3.32737,-0.199347 L 3.33184,-0.0997182
 L 3.33333,-0 L 3.33184,0.0997182 L 3.32737,0.199347 L 3.31991,0.298798 L 3.30949,0.397981 L 3.2961,0.496808
 L 3.27977,0.59519 L 3.26049,0.693039 L 3.2383,0.790268 L 3.21321,0.886789 L 3.18524,0.982517 L 3.15442,1.07737
 L 3.12078,1.17125 L 3.08435,1.26408 L 3.04515,1.35579 L 3.00323,1.44628 L 2.95862,1.53547 L 2.91136,1.6233
 L 2.8615,1.70966 L 2.80907,1.7945 L 2.75413,1.87773 L 2.69672,1.95928 L 2.6369,2.03908 L 2.57472,2.11705
 L 2.51024,2.19313 L 2.44351,2.26724 L 2.37459,2.33933 L 2.30354,2.40932 L 2.23044,2.47715 L 2.15533,2.54277
 L 2.0783,2.6061 L 1.99941,2.66711 L 1.91872,2.72573 L 1.83632,2.78191 L 1.75228,2.8356 L 1.66667,2.88675
 L 1.57956,2.93532 L 1.49104,2.98126 L 1.40119,3.02453 L 1.31008,3.06509 L 1.2178,3.10291 L 1.12443,3.13795
 L 1.03006,3.17019 L 0.934758,3.19958 L 0.838623,3.22612 L 0.741736,3.24976 L 0.644186,3.27049 L 0.54606,3.2883
 L 0.447444,3.30317 L 0.348428,3.31507 L 0.2491,3.32401 L 0.149549,3.32998 L 0.0498647,3.33296 L -0.0498647,3.33296
 z
M -0.358919,7.99194 L -0.597841,7.97763 L -0.836228,7.95618 L -1.07387,7.9276 L -1.31054,7.89192 L -1.54605,7.84919
 L -1.78017,7.79942 L -2.01269,7.74268 L -2.24342,7.679 L -2.47214,7.60845 L -2.69864,7.53109 L -2.92273,7.44699
 L -3.1442,7.35622 L -3.36286,7.25887 L -3.57851,7.15502 L -3.79095,7.04476 L -4,6.9282 L -4.20547,6.80544
 L -4.40718,6.67659 L -4.60494,6.54176 L -4.79858,6.40107 L -4.98792,6.25465 L -5.1728,6.10264 L -5.35304,5.94516
 L -5.5285,5.78236 L -5.69901,5.61438 L -5.86441,5.44138 L -5.97744,5.31586 L -5.8434,5.21221 L -5.68934,5.08553
 L -5.53913,4.9543 L -5.39292,4.81863 L -5.25083,4.67865 L -5.11299,4.53448 L -4.97952,4.38626 L -4.85055,4.23411
 L -4.72619,4.07816 L -4.60655,3.91857 L -4.49174,3.75547 L -4.38186,3.589 L -4.27701,3.41933 L -4.20016,3.28622
 L -4.11956,3.38728 L -4.01638,3.50901 L -3.90961,3.62759 L -3.79934,3.74292 L -3.68567,3.85491 L -3.5687,3.96344
 L -3.44853,4.06842 L -3.32528,4.16977 L -3.19905,4.26738 L -3.06996,4.36117 L -2.93812,4.45106 L -2.80365,4.53696
 L -2.66667,4.6188 L -2.5273,4.69651 L -2.38567,4.77001 L -2.24191,4.83925 L -2.09613,4.90415 L -1.94849,4.96466
 L -1.79909,5.02073 L -1.64809,5.0723 L -1.49561,5.11933 L -1.3418,5.16179 L -1.18678,5.19962 L -1.0307,5.23279
 L -0.873696,5.26128 L -0.715911,5.28507 L -0.557485,5.30412 L -0.398561,5.31842 L -0.239279,5.32796 L -0.0797835,5.33274
 L 0.0797835,5.33274 L 0.239279,5.32796 L 0.398561,5.31842 L 0.557485,5.30412 L 0.715911,5.28507 L 0.873696,5.26128
 L 1.0307,5.23279 L 1.18678,5.19962 L 1.3418,5.16179 L 1.49561,5.11933 L 1.64809,5.0723 L 1.79909,5.02073
 L 1.94849,4.96466 L 2.09613,4.90415 L 2.24191,4.83925 L 2.38567,4.77001 L 2.5273,4.69651 L 2.66667,4.6188
 L 2.80365,4.53696 L 2.93812,4.45106 L 3.06996,4.36117 L 3.19905,4.26738 L 3.32528,4.16977 L 3.44853,4.06842
 L 3.5687,3.96344 L 3.68567,3.85491 L 3.79934,3.74292 L 3.90961,3.62759 L 4.01638,3.50901 L 4.11956,3.38728
 L 4.20016,3.28622 L 4.27701,3.41933 L 4.38186,3.589 L 4.49174,3.75547 L 4.60655,3.91857 L 4.72619,4.07816
 L 4.85055,4.23411 L 4.97952,4.38626 L 5.11299,4.53448 L 5.25083,4.67865 L 5.39292,4.81863 L 5.53913,4.9543
 L 5.68934,5.08553 L 5.8434,5.21221 L 5.97744,5.31586 L 5.86441,5.44138 L 5.69901,5.61438 L 5.5285,5.78236
 L 5.35304,5.94516 L 5.1728,6.10264 L 4.98792,6.25465 L 4.79858,6.40107 L 4.60494,6.54176 L 4.40718,6.67659
 L 4.20547,6.80544 L 4,6.9282 L 3.79095,7.04476 L 3.57851,7.15502 L 3.36286,7.25887 L 3.1442,7.35622
 L 2.92273,7.44699 L 2.69864,7.53109 L 2.47214,7.60845 L 2.24342,7.679 L 2.01269,7.74268 L 1.78017,7.79942
 L 1.54605,7.84919 L 1.31054,7.89192 L 1.07387,7.9276 L 0.836228,7.95618 L 0.597841,7.97763 L 0.358919,7.99194
 L 0.119675,7.9991 L -0.119675,7.9991 z
" stroke="none" fill="#ffffff" stroke-width="0.35"/>
</svg>
